<svg id="Capa_1" enable-background="new 0 0 512.008 512.008" height="512" viewBox="0 0 512.008 512.008" width="512" xmlns="http://www.w3.org/2000/svg"><path d="m504.508 165.67c-38.888 0-74.869 8.751-104.053 25.308-27.362 15.523-47.511 37.264-58.761 63.252-24.336-14.325-54.468-22.293-85.686-22.293-22.789 0-44.619 4.076-64.322 11.872l7.395-64.074 5.679-49.205c14.038-1.324 24.799-4.92 33.024-9.406l12.39 15.341c2.537 3.142 7.106 3.712 10.335 1.288l66.267-49.7c1.739-1.305 2.827-3.3 2.981-5.469.154-2.168-.641-4.297-2.178-5.835l-74.55-74.55c-1.73-1.73-4.196-2.503-6.608-2.082-2.407.426-58.799 11.009-87.555 68.904-6.028 5.068-31.334 27.245-61.32 66.421-31.012 40.513-72.965 107.61-96.726 197.186-1.935 7.296-.407 14.909 4.193 20.888 4.589 5.966 11.539 9.388 19.065 9.388h13.552c6.149 5.708 24.27 21.388 53.273 37.054 1.133.612 2.354.902 3.558.902 2.667 0 5.249-1.426 6.605-3.936 1.969-3.645.61-8.194-3.034-10.163-16.308-8.809-29.028-17.68-37.817-24.488 2.644-1.159 4.493-3.796 4.493-6.868 0-4.143-3.358-7.5-7.5-7.5h-16.567-16.564c-2.833 0-5.449-1.288-7.176-3.534-1.738-2.258-2.314-5.136-1.583-7.896 23.067-86.96 63.75-152.135 93.817-191.497 2.772-3.628 5.502-7.098 8.187-10.432l65.157 58.196-6.746 58.45c-2.173 1.163-4.324 2.357-6.425 3.621-3.55 2.134-4.698 6.742-2.564 10.292 2.135 3.551 6.742 4.699 10.292 2.564 22.234-13.367 50.28-20.73 78.971-20.73 36.254 0 70.716 11.616 94.549 31.87 1.41 1.199 3.136 1.785 4.853 1.785 2.125 0 4.235-.898 5.719-2.644 2.683-3.156 2.298-7.889-.858-10.571-1.891-1.607-3.847-3.16-5.852-4.668 19.537-48.267 74.369-79.77 142.59-81.921v316.215h-37.682c-40.923 0-78.25-33.967-98.401-89.074 14.893-9.18 28.289-20.418 40.069-33.635 8.363 13.843 13.181 30.057 13.181 47.376 0 4.143 3.357 7.5 7.5 7.5s7.5-3.357 7.5-7.5c0-23.811-7.828-45.827-21.042-63.615-.284-.478-.623-.929-1.019-1.343-19.557-25.482-50.309-41.943-84.839-41.943h-33.133c-4.143 0-7.5 3.357-7.5 7.5s3.357 7.5 7.5 7.5h33.133c27.846 0 52.837 12.452 69.704 32.077-12.497 14.587-26.936 26.581-43.259 35.973-.349.158-.676.348-.989.553-33.662 19.066-75.263 27.163-124.389 24.095-33.77-2.111-66.585-9.682-97.534-22.501-3.827-1.59-8.214.232-9.799 4.059s.232 8.214 4.059 9.799c32.481 13.455 66.913 21.399 102.338 23.614 6.973.436 13.815.653 20.536.653 32.408 0 61.829-5.062 87.676-15.107 5.867-2.28 11.556-4.825 17.069-7.62 22.604 59.846 64.812 96.638 111.639 96.638h45.182c4.143 0 7.5-3.357 7.5-7.5v-331.334c0-4.143-3.358-7.5-7.5-7.5zm-259.129-149.905 65.477 65.477-53.56 40.17-7.293-9.03c10.263-9.552 13.045-19.341 13.251-20.113 1.067-4.003-1.301-8.153-5.304-9.221-4.001-1.063-8.1 1.272-9.167 5.274-.178.609-2.845 9.128-13.329 16.57-.248.156-.492.324-.725.512-.002.001-.003.003-.004.004-7.073 4.816-17.529 9.082-32.853 10.312l-28.315-42.472c21.62-41.033 59.895-54.261 71.822-57.483zm-118.475 107.225c15.868-18.557 29.128-31.305 36.478-37.963l26.877 40.315-5.674 49.165z"/></svg>