<?xml version="1.0" encoding="iso-8859-1"?>
<!-- Generator: Adobe Illustrator 17.1.0, SVG Export Plug-In . SVG Version: 6.00 Build 0)  -->
<!DOCTYPE svg PUBLIC "-//W3C//DTD SVG 1.1//EN" "http://www.w3.org/Graphics/SVG/1.1/DTD/svg11.dtd">
<svg version="1.1" id="Capa_1" xmlns="http://www.w3.org/2000/svg" xmlns:xlink="http://www.w3.org/1999/xlink" x="0px" y="0px"
	 viewBox="0 0 406.968 406.968" style="enable-background:new 0 0 406.968 406.968;" xml:space="preserve">
<g>
	<path d="M129.418,19.917c6.628-3.758,14.28-5.911,22.427-5.911c8.232,0,15.955,2.199,22.63,6.028
		c0.701,0.402,1.761-0.449,1.545-1.279C173.207,7.965,163.396,0,151.724,0c-11.58,0-21.325,7.84-24.225,18.501
		C127.235,19.467,128.555,20.407,129.418,19.917z"/>
	<path d="M151.857,108.946c24.448,0,44.338-19.89,44.338-44.338c0-24.447-19.89-44.337-44.338-44.337
		c-24.447,0-44.337,19.89-44.337,44.337C107.52,89.057,127.409,108.946,151.857,108.946z"/>
	<path d="M378.984,312.42c-2.396-4.729-6.55-8.183-11.695-9.727l-66.908-20.082c-7.71-2.314-19.867-7.064-27.1-10.588l-54.272-26.44
		l30.546-63.809c3.348-6.994,1.364-16.433-4.515-21.488l-47.086-40.485c-2.645-2.274-5.991-3.527-9.422-3.527
		c-0.222,0-0.439-0.105-0.659-0.095c-0.496-0.038-0.993-0.21-1.497-0.21h-69.181c-0.427,0-0.846,0.171-1.267,0.199
		c-0.127-0.003-0.251,0.044-0.379,0.044c-3.375,0-6.678,1.266-9.301,3.502l-47.551,40.574c-5.906,5.038-7.907,14.478-4.555,21.48
		l30.014,62.702l-46.76,18.4c-7.203,2.834-12.211,11.09-11.399,18.792l11.676,110.867c0.837,7.962,8.023,14.439,16.02,14.439h2.848
		c4.004,0,7.76-1.572,10.574-4.427c2.82-2.86,4.342-6.645,4.285-10.658l-1.203-86.011c-0.044-3.109,2.679-6.56,5.711-7.238
		l65.155-14.578c3.29,0.897,6.977,1.382,10.793,1.382c4.181,0,8.207-0.582,11.724-1.652c0.552,0.207,1.111,0.398,1.686,0.558
		l92.9,25.745c7.886,2.186,20.597,6.138,28.336,8.811l67.097,23.175c2.104,0.727,4.296,1.096,6.517,1.096
		c8.536,0,16.181-5.38,19.024-13.389l0.771-2.177C381.709,322.54,381.38,317.147,378.984,312.42z M199.422,161.091l17.763,13.593
		c2.476,1.894,3.513,6.183,2.177,8.998l-18.79,39.604l-3.277-7.7c-2.869-6.742-4.217-18.533-2.944-25.747L199.422,161.091z
		 M118.739,124.968h66.1c7.883,0,13.211,6.257,11.842,14.02l-8.927,50.556c-0.081,0.459-0.151,0.936-0.212,1.424h-71.383
		c-0.064-0.504-0.137-0.994-0.221-1.466l-9.016-50.518C105.539,131.223,110.857,124.968,118.739,124.968z M86.51,174.684
		l17.713-13.554l5.116,28.72c1.285,7.211-0.052,18.996-2.92,25.735l-3.286,7.72l-18.799-39.622
		C82.998,180.866,84.035,176.577,86.51,174.684z M193.869,260.396l-29.088,13.94c-7.108,3.407-18.74,3.407-25.849,0l-29.088-13.94
		c-7.108-3.407-10.399-12.128-7.312-19.381l10.306-24.217c0.113-0.266,0.219-0.552,0.328-0.831h77.373
		c0.112,0.287,0.221,0.581,0.337,0.854l10.306,24.205C204.268,248.28,200.977,256.99,193.869,260.396z"/>
</g>
<g>
</g>
<g>
</g>
<g>
</g>
<g>
</g>
<g>
</g>
<g>
</g>
<g>
</g>
<g>
</g>
<g>
</g>
<g>
</g>
<g>
</g>
<g>
</g>
<g>
</g>
<g>
</g>
<g>
</g>
</svg>
