<?xml version="1.0" encoding="UTF-8" standalone="no"?>
<svg
   xmlns:dc="http://purl.org/dc/elements/1.1/"
   xmlns:cc="http://creativecommons.org/ns#"
   xmlns:rdf="http://www.w3.org/1999/02/22-rdf-syntax-ns#"
   xmlns:svg="http://www.w3.org/2000/svg"
   xmlns="http://www.w3.org/2000/svg"
   xmlns:sodipodi="http://sodipodi.sourceforge.net/DTD/sodipodi-0.dtd"
   xmlns:inkscape="http://www.inkscape.org/namespaces/inkscape"
   version="1.1"
   id="Capa_1"
   x="0px"
   y="0px"
   viewBox="0 0 406.968 406.968"
   style="enable-background:new 0 0 406.968 406.968;"
   xml:space="preserve"
   sodipodi:docname="streching.svg"
   inkscape:version="1.0.1 (3bc2e813f5, 2020-09-07)"><metadata
   id="metadata45"><rdf:RDF><cc:Work
       rdf:about=""><dc:format>image/svg+xml</dc:format><dc:type
         rdf:resource="http://purl.org/dc/dcmitype/StillImage" /><dc:title></dc:title></cc:Work></rdf:RDF></metadata><defs
   id="defs43" /><sodipodi:namedview
   pagecolor="#ffffff"
   bordercolor="#666666"
   borderopacity="1"
   objecttolerance="10"
   gridtolerance="10"
   guidetolerance="10"
   inkscape:pageopacity="0"
   inkscape:pageshadow="2"
   inkscape:window-width="1920"
   inkscape:window-height="1017"
   id="namedview41"
   showgrid="false"
   showborder="false"
   inkscape:zoom="0.046152338"
   inkscape:cx="-236.16679"
   inkscape:cy="5120.4415"
   inkscape:window-x="-8"
   inkscape:window-y="-8"
   inkscape:window-maximized="1"
   inkscape:current-layer="Capa_1" />

<rect
   style="fill:#ececec;stroke-width:16"
   id="rect71"
   width="10240"
   height="6816"
   x="-12653.409"
   y="-1397.7028"
   inkscape:export-xdpi="6"
   inkscape:export-ydpi="6" /><g
   id="g10">
</g>
<g
   id="g12">
</g>
<g
   id="g14">
</g>
<g
   id="g16">
</g>
<g
   id="g18">
</g>
<g
   id="g20">
</g>
<g
   id="g22">
</g>
<g
   id="g24">
</g>
<g
   id="g26">
</g>
<g
   id="g28">
</g>
<g
   id="g30">
</g>
<g
   id="g32">
</g>
<g
   id="g34">
</g>
<g
   id="g36">
</g>
<g
   id="g38">
</g>
<path
   d="m -5691.5851,2993.6166 h -759.7572 c 43.2943,-53.1169 74.127,-117.9579 87.376,-189.4358 1.2527,-6.7752 26.8931,-361.6322 22.83,-485.8466 -3.722,-113.7783 -18.346,-225.9993 -43.4522,-333.5495 -8.7042,-37.2678 -44.3361,-60.0124 -79.513,-50.7998 -35.2112,9.2129 -56.7093,46.8887 -47.9963,84.1567 20.4127,87.4284 33.18,178.3417 38.1631,270.7378 -77.6131,63.0155 -288.6719,204.9233 -555.7219,147.2649 -38.7935,-315.4946 -227.7584,-407.1309 -372.9656,-520.5754 l 94.8898,-42.4955 c 118.7966,-53.2004 174.2888,-198.0182 124.0154,-323.7897 -35.6408,-89.143 -115.2495,-144.6141 -200.8568,-150.2585 44.1262,-37.2217 81.1153,-83.2761 109.0316,-136.2911 127.326,-36.8417 266.3944,-5.5888 368.5172,84.3235 123.9448,109.1255 222.6005,237.594 293.2337,381.8374 16.6467,33.9963 56.2538,47.4355 88.5317,29.7328 32.208,-17.6654 44.7831,-59.6139 28.0928,-93.7028 -78.7337,-160.7875 -188.3702,-303.6962 -325.8532,-424.7501 -112.5876,-99.1157 -259.1605,-144.3267 -402.3534,-128.3945 12.8376,-81.0609 5.0788,-164.58718 -23.5737,-243.29398 l -33.0573,-90.8113 c -11.6641,-32.05 -26.4282,-61.8756 -43.6444,-89.4118 119.0325,-110.173 90.8088,-315.5039 -55.1857,-384.0712 -130.338,-61.1989 -281.8498,24.9875 -303.6193,175.8671 -54.9851,-1.0652 -111.0378,8.7399 -165.4268,30.9191 -187.1091,76.3063 -296.6487,274.2041 -279.4762,475.8 1.4097,28.23138 10.8056,79.38338 27.4968,125.24318 l 33.0572,90.8113 c 56.6484,155.6155 184.2448,260.6259 328.7251,289.6545 0.9195,24.5795 2.5569,48.4178 4.9475,71.4125 l -598.6217,356.9706 c -301.2724,179.6576 -482.9167,412.1635 -495.4655,424.7219 -56.6307,65.6572 -10.8497,168.8139 69.9677,168.8139 34.117,0 24.0202,-5.0513 363.3766,-154.0678 33.4074,-14.9591 49.0296,-55.7491 34.8958,-91.1078 -14.1334,-35.3496 -52.6635,-51.8937 -86.0802,-36.9344 l -161.0831,72.1354 c 102.5783,-101.2844 216.1118,-189.241 338.8569,-262.4425 l 833.8409,-497.2377 c 51.1226,-20.9093 109.2424,4.9031 130.7406,58.6873 21.9714,54.9798 -2.2682,118.3104 -54.2231,141.574 l -192.0562,86.001 c -0.1566,0.065 -0.3175,0.1477 -0.4809,0.2134 l -610.715,273.4813 c -33.4074,14.9591 -49.0301,55.7492 -34.8962,91.1079 14.1334,35.3588 52.699,51.9028 86.0801,36.9344 l 570.9065,-255.6581 c 158.2894,146.6529 337.1494,189.9361 377.6586,458.4402 l -454.8073,87.243 c -2.2767,0.4453 57.8481,-11.2889 -1068.1754,208.445 -72.3757,16.2941 -145.2944,-31.6141 -162.5893,-107.1694 l -10.2456,-49.6878 c -15.6485,-76.0839 -80.4146,-131.3141 -153.99,-131.3141 -87.131,0 -157.6591,74.6659 -157.6066,166.9045 l 0.1753,294.2331 c -1.3574,31.3921 3.6341,61.6254 13.6256,89.4116 h -654.8766 c -100.4066,0.043 -182.0998,86.483 -182.0998,192.7629 0,106.2804 81.6932,192.7357 182.0998,192.7357 h 4119.3247 c 100.4151,0 182.0994,-86.4642 182.0994,-192.7357 0,-106.2706 -81.6843,-192.7446 -182.0909,-192.7446 z M -7434.1118,431.27052 c 58.4348,27.4435 69.6349,110.4879 20.1934,153.8545 -42.007,-36.2485 -89.8898,-63.9886 -141.0737,-81.821 7.4693,-61.0414 68.2951,-96.7244 120.8803,-72.0335 z m -368.5515,209.4368 c 36.2886,-14.8015 73.6278,-21.8083 110.3719,-21.8083 123.7086,0 240.6396,79.4667 287.7079,208.7602 l 33.0573,90.8021 c 17.8905,49.15 23.6524,100.11668 18.9763,149.25738 l -198.493,-109.48698 c -12.5835,-6.9419 -22.321,-18.481 -27.4264,-32.5041 -37.5933,-103.2586 -147.5537,-154.8833 -245.0969,-115.1036 l -169.9887,69.3273 c 20.395,-105.2607 89.3289,-197.8237 190.8916,-239.244 z m -143.5781,512.14128 -33.0573,-90.8113 c -4.1686,-11.4557 -7.6276,-23.0134 -10.5084,-34.6173 l 213.476,-87.05758 c 29.9656,-12.2156 63.7502,3.6424 75.2915,35.3494 16.6116,45.63738 48.3294,83.22048 89.303,105.81678 l 217.6615,120.0621 c -34.047,61.0137 -86.912,110.8125 -154.0954,138.2096 -36.2971,14.8017 -73.619,21.8177 -110.3719,21.8085 -123.6828,-0.01 -240.6307,-79.476 -287.699,-208.7602 z m 352.6142,1506.7092 500.6056,-96.0294 c 267.4357,72.3673 490.8241,-25.2008 619.6558,-107.4665 -1.0947,23.5138 -0.5164,10.5475 -20.2895,325.4488 -21.6387,107.9302 -103.8047,192.3 -206.2429,212.1059 h -1908.9254 l 5.0701,-137.0976 z m -1444.696,246.3156 -0.1749,-295.9847 c -0.01,-15.3395 11.7343,-27.8053 26.2533,-27.8053 12.2509,0 23.0394,9.1943 25.6489,21.8643 0.1927,0.9267 11.7518,56.7779 11.0161,53.2466 28.0834,122.6666 126.3533,206.7029 239.7638,215.6651 l -4.4659,120.7482 h -243.0215 c -32.4705,-10.5475 -55.0195,-38.9642 -55.0195,-87.7342 z m 3346.7381,334.1983 h -4119.3332 c -27.9871,0 -50.7462,-24.098 -50.7462,-53.7105 0,-29.6121 22.7679,-53.7101 50.7462,-53.7101 h 4119.3247 c 27.987,0 50.7463,24.098 50.7463,53.7101 0,29.6125 -22.7593,53.7105 -50.7378,53.7105 z"
   id="path58"
   style="stroke-width:9.00898"
   inkscape:export-xdpi="6"
   inkscape:export-ydpi="6" /></svg>
