<?xml version="1.0" encoding="UTF-8" standalone="no"?>
<svg
   xmlns:dc="http://purl.org/dc/elements/1.1/"
   xmlns:cc="http://creativecommons.org/ns#"
   xmlns:rdf="http://www.w3.org/1999/02/22-rdf-syntax-ns#"
   xmlns:svg="http://www.w3.org/2000/svg"
   xmlns="http://www.w3.org/2000/svg"
   xmlns:sodipodi="http://sodipodi.sourceforge.net/DTD/sodipodi-0.dtd"
   xmlns:inkscape="http://www.inkscape.org/namespaces/inkscape"
   version="1.1"
   id="Capa_1"
   x="0px"
   y="0px"
   width="206.326px"
   height="206.326px"
   viewBox="0 0 206.326 206.326"
   style="enable-background:new 0 0 206.326 206.326;"
   xml:space="preserve"
   sodipodi:docname="Bild_index.svg"
   inkscape:version="1.0.1 (3bc2e813f5, 2020-09-07)"><metadata
   id="metadata43"><rdf:RDF><cc:Work
       rdf:about=""><dc:format>image/svg+xml</dc:format><dc:type
         rdf:resource="http://purl.org/dc/dcmitype/StillImage" /><dc:title></dc:title></cc:Work></rdf:RDF></metadata><defs
   id="defs41" /><sodipodi:namedview
   pagecolor="#ffffff"
   bordercolor="#666666"
   borderopacity="1"
   objecttolerance="10"
   gridtolerance="10"
   guidetolerance="10"
   inkscape:pageopacity="0"
   inkscape:pageshadow="2"
   inkscape:window-width="1920"
   inkscape:window-height="1017"
   id="namedview39"
   showgrid="false"
   showborder="false"
   inkscape:zoom="1.4565318"
   inkscape:cx="119.85753"
   inkscape:cy="156.05363"
   inkscape:window-x="-8"
   inkscape:window-y="-8"
   inkscape:window-maximized="1"
   inkscape:current-layer="Capa_1" />
<g
   id="g6"
   transform="matrix(2.4540983,0,0,2.4540983,-143.89276,-80.327804)"
   inkscape:export-xdpi="127.10458"
   inkscape:export-ydpi="127.10458">
	<g
   id="g4">
		<path
   d="m 104.265,117.959 c -0.304,3.58 2.126,22.529 3.38,29.959 0.597,3.52 2.234,9.255 1.645,12.3 -0.841,4.244 -1.084,9.736 -0.621,12.934 0.292,1.942 1.211,10.899 -0.104,14.175 -0.688,1.718 -1.949,10.522 -1.949,10.522 -3.285,8.294 -1.431,7.886 -1.431,7.886 1.017,1.248 2.759,0.098 2.759,0.098 1.327,0.846 2.246,-0.201 2.246,-0.201 1.139,0.943 2.467,-0.116 2.467,-0.116 1.431,0.743 2.758,-0.627 2.758,-0.627 0.822,0.414 1.023,-0.109 1.023,-0.109 2.466,-0.158 -1.376,-8.05 -1.376,-8.05 -0.92,-7.088 0.913,-11.033 0.913,-11.033 6.004,-17.805 6.309,-22.53 3.909,-29.24 -0.676,-1.937 -0.847,-2.704 -0.536,-3.545 0.719,-1.941 0.195,-9.748 1.072,-12.848 1.692,-5.979 3.361,-21.142 4.231,-28.217 1.169,-9.53 -4.141,-22.308 -4.141,-22.308 -1.163,-5.2 0.542,-23.727 0.542,-23.727 2.381,3.705 2.29,10.245 2.29,10.245 -0.378,6.859 5.541,17.342 5.541,17.342 2.844,4.332 3.921,8.442 3.921,8.747 0,1.248 -0.273,4.269 -0.273,4.269 l 0.109,2.631 c 0.049,0.67 0.426,2.977 0.365,4.092 -0.444,6.862 0.646,5.571 0.646,5.571 0.92,0 1.931,-5.522 1.931,-5.522 0,1.424 -0.348,5.687 0.42,7.295 0.919,1.918 1.595,-0.329 1.607,-0.78 0.243,-8.737 0.768,-6.448 0.768,-6.448 0.511,7.088 1.139,8.689 2.265,8.135 0.853,-0.407 0.073,-8.506 0.073,-8.506 1.461,4.811 2.569,5.577 2.569,5.577 2.411,1.693 0.92,-2.983 0.585,-3.909 -1.784,-4.92 -1.839,-6.625 -1.839,-6.625 2.229,4.421 3.909,4.257 3.909,4.257 2.174,-0.694 -1.9,-6.954 -4.287,-9.953 -1.218,-1.528 -2.789,-3.574 -3.245,-4.789 -0.743,-2.058 -1.304,-8.674 -1.304,-8.674 -0.225,-7.807 -2.155,-11.198 -2.155,-11.198 -3.3,-5.282 -3.921,-15.135 -3.921,-15.135 l -0.146,-16.635 c -1.157,-11.347 -9.518,-11.429 -9.518,-11.429 -8.451,-1.258 -9.627,-3.988 -9.627,-3.988 -1.79,-2.576 -0.767,-7.514 -0.767,-7.514 1.485,-1.208 2.058,-4.415 2.058,-4.415 2.466,-1.891 2.345,-4.658 1.206,-4.628 -0.914,0.024 -0.707,-0.733 -0.707,-0.733 C 115.068,0.636 104.01,0 104.01,0 h -1.688 c 0,0 -11.063,0.636 -9.523,13.089 0,0 0.207,0.758 -0.715,0.733 -1.136,-0.03 -1.242,2.737 1.215,4.628 0,0 0.572,3.206 2.058,4.415 0,0 1.023,4.938 -0.767,7.514 0,0 -1.172,2.73 -9.627,3.988 0,0 -8.375,0.082 -9.514,11.429 l -0.158,16.635 c 0,0 -0.609,9.853 -3.922,15.135 0,0 -1.921,3.392 -2.143,11.198 0,0 -0.563,6.616 -1.303,8.674 -0.451,1.209 -2.021,3.255 -3.249,4.789 -2.408,2.993 -6.455,9.24 -4.29,9.953 0,0 1.689,0.164 3.909,-4.257 0,0 -0.046,1.693 -1.827,6.625 -0.35,0.914 -1.839,5.59 0.573,3.909 0,0 1.117,-0.767 2.569,-5.577 0,0 -0.779,8.099 0.088,8.506 1.133,0.555 1.751,-1.047 2.262,-8.135 0,0 0.524,-2.289 0.767,6.448 0.012,0.451 0.673,2.698 1.596,0.78 0.779,-1.608 0.429,-5.864 0.429,-7.295 0,0 0.999,5.522 1.933,5.522 0,0 1.099,1.291 0.648,-5.571 -0.073,-1.121 0.32,-3.422 0.369,-4.092 l 0.106,-2.631 c 0,0 -0.274,-3.014 -0.274,-4.269 0,-0.311 1.078,-4.415 3.921,-8.747 0,0 5.913,-10.488 5.532,-17.342 0,0 -0.082,-6.54 2.299,-10.245 0,0 1.69,18.526 0.545,23.727 0,0 -5.319,12.778 -4.146,22.308 0.864,7.094 2.53,22.237 4.226,28.217 0.886,3.094 0.362,10.899 1.072,12.848 0.32,0.847 0.152,1.627 -0.536,3.545 -2.387,6.71 -2.083,11.436 3.921,29.24 0,0 1.848,3.945 0.914,11.033 0,0 -3.836,7.892 -1.379,8.05 0,0 0.192,0.523 1.023,0.109 0,0 1.327,1.37 2.761,0.627 0,0 1.328,1.06 2.463,0.116 0,0 0.91,1.047 2.237,0.201 0,0 1.742,1.175 2.777,-0.098 0,0 1.839,0.408 -1.435,-7.886 0,0 -1.254,-8.793 -1.945,-10.522 -1.318,-3.275 -0.387,-12.251 -0.106,-14.175 0.453,-3.216 0.21,-8.695 -0.618,-12.934 -0.606,-3.038 1.035,-8.774 1.641,-12.3 1.245,-7.423 3.685,-26.373 3.38,-29.959 l 1.008,0.354 c 0.722,0.002 1.178,-0.351 1.178,-0.351 z"
   id="path2" />
	</g>
</g>
<g
   id="g8">
</g>
<g
   id="g10">
</g>
<g
   id="g12">
</g>
<g
   id="g14">
</g>
<g
   id="g16">
</g>
<g
   id="g18">
</g>
<g
   id="g20">
</g>
<g
   id="g22">
</g>
<g
   id="g24">
</g>
<g
   id="g26">
</g>
<g
   id="g28">
</g>
<g
   id="g30">
</g>
<g
   id="g32">
</g>
<g
   id="g34">
</g>
<g
   id="g36">
</g>
</svg>
